<svg width="184" height="39" viewBox="0 0 184 39" fill="none" xmlns="http://www.w3.org/2000/svg">
<path d="M4 1H180C181.657 1 183 2.34315 183 4V35C183 36.6569 181.657 38 180 38H4C2.34315 38 1 36.6569 1 35V4C1 2.34315 2.34315 1 4 1Z" fill="black"/>
<path d="M4 1H180C181.657 1 183 2.34315 183 4V35C183 36.6569 181.657 38 180 38H4C2.34315 38 1 36.6569 1 35V4C1 2.34315 2.34315 1 4 1Z" stroke="#F6821F" stroke-width="2"/>
<path d="M28.8868 24.7745L29.0095 24.35C29.1558 23.8449 29.1014 23.378 28.8559 23.0349C28.6302 22.7189 28.2539 22.5328 27.797 22.5112L19.1416 22.4009C19.0833 22.3978 19.0351 22.3715 19.0054 22.3283C18.9753 22.2839 18.9683 22.2268 18.9869 22.172C19.0154 22.0867 19.0999 22.0223 19.1879 22.0184L27.9236 21.9077C28.9597 21.8602 30.0816 21.0194 30.4745 19.994L30.9727 18.6924C30.9864 18.657 30.9926 18.6194 30.9923 18.5817C30.9922 18.5612 30.9907 18.5406 30.9862 18.5203C30.4201 15.9761 28.1497 14.0736 25.4348 14.0736C22.9333 14.0736 20.8092 15.6882 20.0474 17.9322C19.5557 17.5633 18.9267 17.3672 18.2506 17.4348C17.0504 17.554 16.086 18.5203 15.9667 19.7204C15.9354 20.0319 15.9609 20.3325 16.0327 20.615C14.0722 20.6721 12.5 22.2782 12.5 24.2524C12.5 24.4311 12.5135 24.6067 12.5386 24.7784C12.5509 24.8618 12.6212 24.9243 12.7053 24.9243L28.6846 24.9262C28.6862 24.9262 28.6876 24.9255 28.6892 24.9254C28.7806 24.9234 28.861 24.8629 28.8868 24.7745Z" fill="url(#paint0_linear_261_5859)"/>
<path d="M31.7695 18.7879C31.6892 18.7879 31.6093 18.7902 31.5298 18.7941C31.5167 18.7948 31.5042 18.798 31.4923 18.8022C31.4508 18.8167 31.4177 18.8503 31.4051 18.8941L31.0648 20.0695C30.9185 20.5746 30.9729 21.0412 31.2184 21.3842C31.4441 21.7007 31.8204 21.8863 32.2773 21.9079L34.1224 22.0187C34.1768 22.0213 34.2247 22.0476 34.254 22.09C34.2848 22.1348 34.2918 22.1923 34.2733 22.2471C34.2443 22.3324 34.1602 22.3968 34.0726 22.4007L32.1553 22.5114C31.1145 22.5593 29.9927 23.3998 29.5998 24.4251L29.4612 24.7871C29.436 24.8526 29.483 24.9223 29.5522 24.9258C29.554 24.9258 29.5556 24.9264 29.5573 24.9264H36.1542C36.233 24.9264 36.3032 24.8751 36.3244 24.7994C36.439 24.3919 36.5 23.9624 36.5 23.5183C36.5 20.9057 34.3821 18.7879 31.7695 18.7879Z" fill="url(#paint1_linear_261_5859)"/>
<path d="M46.8252 24.5V14.6357H50.9199C52.7109 14.6357 53.8662 15.5996 53.8662 17.0967V17.1104C53.8662 18.1631 53.0664 19.1064 52.0137 19.25V19.291C53.4014 19.4141 54.3447 20.3848 54.3447 21.6836V21.6973C54.3447 23.4336 53.0664 24.5 50.9609 24.5H46.8252ZM50.4756 16.0098H48.5889V18.7783H50.2021C51.4326 18.7783 52.123 18.2588 52.123 17.3496V17.3359C52.123 16.4883 51.5215 16.0098 50.4756 16.0098ZM50.4824 20.0566H48.5889V23.126H50.5576C51.8496 23.126 52.5469 22.5996 52.5469 21.5947V21.5811C52.5469 20.583 51.8359 20.0566 50.4824 20.0566ZM57.8994 24.6436C56.3066 24.6436 55.3975 23.6182 55.3975 21.9365V17.2539H57.0996V21.6016C57.0996 22.627 57.5781 23.208 58.5488 23.208C59.5264 23.208 60.1484 22.5039 60.1484 21.4512V17.2539H61.8506V24.5H60.1484V23.3652H60.1143C59.7383 24.1377 58.9932 24.6436 57.8994 24.6436ZM64.1543 16.2148C63.6211 16.2148 63.2041 15.791 63.2041 15.2852C63.2041 14.7656 63.6211 14.3486 64.1543 14.3486C64.6875 14.3486 65.0977 14.7656 65.0977 15.2852C65.0977 15.791 64.6875 16.2148 64.1543 16.2148ZM63.2998 24.5V17.2539H65.002V24.5H63.2998ZM66.499 24.5V14.6357H68.2012V24.5H66.499ZM72.3438 24.6436C70.8262 24.6436 70.1084 24.0283 70.1084 22.5381V18.5664H69.083V17.2539H70.1084V15.415H71.8379V17.2539H73.1846V18.5664H71.8379V22.3945C71.8379 23.1055 72.1523 23.3311 72.7744 23.3311C72.9385 23.3311 73.0684 23.3105 73.1846 23.3037V24.582C72.9863 24.6094 72.6855 24.6436 72.3438 24.6436ZM78.5713 24.5L76.6094 17.2539H78.3184L79.542 22.8184H79.5762L80.9912 17.2539H82.625L84.04 22.8184H84.0811L85.3047 17.2539H86.9863L85.0244 24.5H83.2334L81.8047 19.2021H81.7705L80.3486 24.5H78.5713ZM88.7363 16.2148C88.2031 16.2148 87.7861 15.791 87.7861 15.2852C87.7861 14.7656 88.2031 14.3486 88.7363 14.3486C89.2695 14.3486 89.6797 14.7656 89.6797 15.2852C89.6797 15.791 89.2695 16.2148 88.7363 16.2148ZM87.8818 24.5V17.2539H89.584V24.5H87.8818ZM93.7266 24.6436C92.209 24.6436 91.4912 24.0283 91.4912 22.5381V18.5664H90.4658V17.2539H91.4912V15.415H93.2207V17.2539H94.5674V18.5664H93.2207V22.3945C93.2207 23.1055 93.5352 23.3311 94.1572 23.3311C94.3213 23.3311 94.4512 23.3105 94.5674 23.3037V24.582C94.3691 24.6094 94.0684 24.6436 93.7266 24.6436ZM95.7842 24.5V14.6357H97.4863V18.4707H97.5273C97.9033 17.6025 98.6758 17.1035 99.7627 17.1035C101.321 17.1035 102.319 18.2383 102.319 19.9883V24.5H100.617V20.3232C100.617 19.209 100.057 18.5391 99.0791 18.5391C98.1152 18.5391 97.4863 19.2705 97.4863 20.3232V24.5H95.7842ZM110.96 24.6709C108.123 24.6709 106.332 22.7158 106.332 19.5645V19.5576C106.332 16.4062 108.13 14.4648 110.96 14.4648C113.229 14.4648 114.897 15.8799 115.157 17.8896L115.164 17.958H113.435L113.4 17.8281C113.113 16.7002 112.245 15.9961 110.96 15.9961C109.237 15.9961 108.137 17.3701 108.137 19.5576V19.5645C108.137 21.7588 109.244 23.1396 110.96 23.1396C112.218 23.1396 113.1 22.4629 113.421 21.2461L113.441 21.1777H115.171L115.157 21.2461C114.904 23.2695 113.229 24.6709 110.96 24.6709ZM116.388 24.5V14.6357H118.09V24.5H116.388ZM122.745 24.6436C120.612 24.6436 119.238 23.2217 119.238 20.877V20.8633C119.238 18.5391 120.633 17.1035 122.738 17.1035C124.851 17.1035 126.252 18.5254 126.252 20.8633V20.877C126.252 23.2285 124.871 24.6436 122.745 24.6436ZM122.752 23.2695C123.825 23.2695 124.516 22.3945 124.516 20.877V20.8633C124.516 19.3525 123.818 18.4844 122.738 18.4844C121.679 18.4844 120.975 19.3594 120.975 20.8633V20.877C120.975 22.4014 121.665 23.2695 122.752 23.2695ZM129.813 24.6436C128.221 24.6436 127.312 23.6182 127.312 21.9365V17.2539H129.014V21.6016C129.014 22.627 129.492 23.208 130.463 23.208C131.44 23.208 132.062 22.5039 132.062 21.4512V17.2539H133.765V24.5H132.062V23.3652H132.028C131.652 24.1377 130.907 24.6436 129.813 24.6436ZM137.859 24.6436C136.027 24.6436 134.865 23.208 134.865 20.877V20.8701C134.865 18.5322 136.034 17.1035 137.853 17.1035C138.878 17.1035 139.705 17.6299 140.115 18.498H140.156V14.6357H141.858V24.5H140.156V23.2695H140.115C139.705 24.124 138.905 24.6436 137.859 24.6436ZM138.372 23.208C139.425 23.208 140.156 22.2988 140.156 20.877V20.8701C140.156 19.4551 139.418 18.5391 138.372 18.5391C137.285 18.5391 136.602 19.4277 136.602 20.8701V20.877C136.602 22.3193 137.278 23.208 138.372 23.208ZM143.759 24.5V18.5664H142.768V17.2539H143.759V16.5635C143.759 15.1484 144.429 14.4922 146.001 14.4922C146.336 14.4922 146.698 14.5195 146.91 14.5605V15.75C146.773 15.7295 146.582 15.7158 146.397 15.7158C145.734 15.7158 145.427 16.0234 145.427 16.6113V17.2539H146.883V18.5664H145.461V24.5H143.759ZM148.052 24.5V14.6357H149.754V24.5H148.052ZM153.343 24.623C151.894 24.623 150.916 23.7275 150.916 22.4355V22.4219C150.916 21.1367 151.914 20.3643 153.671 20.2549L155.564 20.1387V19.6396C155.564 18.9082 155.086 18.4639 154.225 18.4639C153.418 18.4639 152.926 18.8398 152.816 19.373L152.803 19.4346H151.224L151.23 19.3525C151.333 18.0674 152.447 17.1035 154.286 17.1035C156.098 17.1035 157.267 18.0605 157.267 19.5166V24.5H155.564V23.3857H155.523C155.106 24.1445 154.3 24.623 153.343 24.623ZM152.611 22.3672C152.611 22.9619 153.104 23.3242 153.849 23.3242C154.826 23.3242 155.564 22.6748 155.564 21.8135V21.2666L153.91 21.3691C153.069 21.4238 152.611 21.7861 152.611 22.3604V22.3672ZM158.641 24.5V17.2539H160.295V18.4639H160.329C160.548 17.6162 161.184 17.1035 162.038 17.1035C162.25 17.1035 162.448 17.1377 162.578 17.1719V18.71C162.435 18.6553 162.175 18.6143 161.888 18.6143C160.924 18.6143 160.343 19.2363 160.343 20.2549V24.5H158.641ZM166.365 24.6436C164.191 24.6436 162.879 23.2012 162.879 20.8975V20.8906C162.879 18.6074 164.212 17.1035 166.283 17.1035C168.354 17.1035 169.64 18.5596 169.64 20.7471V21.2939H164.567C164.595 22.5654 165.292 23.3174 166.399 23.3174C167.247 23.3174 167.801 22.8662 167.965 22.3809L167.979 22.333H169.571L169.551 22.4082C169.325 23.5225 168.259 24.6436 166.365 24.6436ZM166.304 18.4365C165.401 18.4365 164.725 19.0449 164.588 20.1592H167.985C167.862 19.0107 167.206 18.4365 166.304 18.4365Z" fill="url(#paint2_linear_261_5859)"/>
<defs>
<linearGradient id="paint0_linear_261_5859" x1="14.292" y1="12.9108" x2="13.2175" y2="23.4488" gradientUnits="userSpaceOnUse">
<stop stop-color="#FBAD41"/>
<stop offset="1" stop-color="#FF6633"/>
</linearGradient>
<linearGradient id="paint1_linear_261_5859" x1="30.1371" y1="18.1302" x2="29.2458" y2="24.0178" gradientUnits="userSpaceOnUse">
<stop stop-color="#FBAD41"/>
<stop offset="1" stop-color="#FF6633"/>
</linearGradient>
<linearGradient id="paint2_linear_261_5859" x1="44.5303" y1="25.3333" x2="139.907" y2="78.0713" gradientUnits="userSpaceOnUse">
<stop stop-color="#FBAD41"/>
<stop offset="1" stop-color="#FF6633"/>
</linearGradient>
</defs>
</svg>
